<?xml version="1.0" encoding="utf-8"?>
<!-- Generator: Adobe Illustrator 15.1.0, SVG Export Plug-In . SVG Version: 6.00 Build 0)  -->
<!DOCTYPE svg PUBLIC "-//W3C//DTD SVG 1.1//EN" "http://www.w3.org/Graphics/SVG/1.1/DTD/svg11.dtd">
<svg version="1.1" id="Layer_1" xmlns="http://www.w3.org/2000/svg" xmlns:xlink="http://www.w3.org/1999/xlink" x="0px" y="0px"
	 width="140px" height="140px" viewBox="0 0 140 140" enable-background="new 0 0 140 140" xml:space="preserve">
<path opacity="0.75" fill-rule="evenodd" clip-rule="evenodd" fill="#2DA1DB" d="M70.1,9.9C37,9.9,10.1,36.7,10.1,69.8
	c0,33.1,26.8,59.9,59.9,59.9c33.1,0,59.9-26.8,59.9-59.9C130,36.7,103.2,9.9,70.1,9.9z M82.4,68.2h-9.5v31.7h-8.7l0-31.7h-8.6l0-7.2
	h8.6c0,0,0-6.3,0-9.2c0-13.4,12.7-12.5,12.7-12.5H83l0,8.7h-6c-4.1,0-4,3.5-4,3.5V61h11.5L82.4,68.2z"/>
</svg>
