<?xml version="1.0" encoding="utf-8"?>
<!-- Generator: Adobe Illustrator 15.1.0, SVG Export Plug-In . SVG Version: 6.00 Build 0)  -->
<!DOCTYPE svg PUBLIC "-//W3C//DTD SVG 1.1//EN" "http://www.w3.org/Graphics/SVG/1.1/DTD/svg11.dtd">
<svg version="1.1" id="Layer_1" xmlns="http://www.w3.org/2000/svg" xmlns:xlink="http://www.w3.org/1999/xlink" x="0px" y="0px"
	 width="140px" height="140px" viewBox="0 0 140 140" enable-background="new 0 0 140 140" xml:space="preserve">
<g opacity="0.75">
	<path fill-rule="evenodd" clip-rule="evenodd" fill="#2DA1DB" d="M54.5,87.3c0,4.2,4.3,7.6,10.3,7.6c8.4,0,11.3-3.2,11.3-7.4
		c0-0.5,0-1-0.2-1.5c-2-5-8.5-5-10.7-5C59.3,81,54.5,83.2,54.5,87.3z"/>
	<path fill-rule="evenodd" clip-rule="evenodd" fill="#2DA1DB" d="M64.8,49.3c-4-0.1-7.6,3.6-6.9,8.8c0.7,5.3,4.5,8.8,8.6,8.9
		c4,0.1,6.4-3.1,5.7-8.4C71.5,53.3,68.9,49.4,64.8,49.3z"/>
	<path fill-rule="evenodd" clip-rule="evenodd" fill="#2DA1DB" d="M69.9,9.9C36.8,9.9,9.9,36.7,9.9,69.8c0,33.1,26.8,59.9,59.9,59.9
		c33.1,0,59.9-26.8,59.9-59.9C129.8,36.7,103,9.9,69.9,9.9z M78.9,58c0,3.5-1.9,6.3-4.7,8.4c-2.7,2.1-3.2,2.9-3.2,4.7
		c0,1.5,3.2,3.8,4.7,4.8c5.1,3.8,6.1,6.2,6.1,11c0.1,6.3-6.4,11.9-16.9,11.9c-9.2,0-16.9-4.2-16.9-10.1c0-9,6.4-11.9,15.6-11.9
		c1,0,1.9,0,2.9,0c-1.3-1.2-2.3-2.3-2.3-4.1c0-1.1,0.3-2.1,0.8-3.1c-0.5,0-1,0.1-1.5,0.1c-7.5,0-11.9-5.3-11.9-11.9
		c0-6.5,6.7-12.3,14.7-12.3c4.1,0,15.8,0,15.8,0l-3.5,3.6h-4.2C77.3,50.7,78.9,54.2,78.9,58z M102.4,71.5h-8.5V80h-2.8v-8.5h-8.5
		v-2.8h8.5v-8.5h2.8v8.5h8.5V71.5z"/>
</g>
</svg>
