<?xml version="1.0" encoding="utf-8"?>
<!-- Generator: Adobe Illustrator 15.1.0, SVG Export Plug-In . SVG Version: 6.00 Build 0)  -->
<!DOCTYPE svg PUBLIC "-//W3C//DTD SVG 1.1//EN" "http://www.w3.org/Graphics/SVG/1.1/DTD/svg11.dtd">
<svg version="1.1" id="Layer_1" xmlns="http://www.w3.org/2000/svg" xmlns:xlink="http://www.w3.org/1999/xlink" x="0px" y="0px"
	 width="140px" height="140px" viewBox="0 0 140 140" enable-background="new 0 0 140 140" xml:space="preserve">
<path opacity="0.75" fill-rule="evenodd" clip-rule="evenodd" fill="#2DA1DB" d="M70.2,9.9C37,9.9,10.2,36.7,10.2,69.8
	c0,33.1,26.8,59.9,59.9,59.9c33.1,0,59.9-26.8,59.9-59.9C130.1,36.7,103.3,9.9,70.2,9.9z M94.8,63.4c-0.7,5.3-3.1,12.1-7.7,18.3
	c-5.2,7-26.6,17.2-39.7,6.7c0-0.3-0.3-0.4-1.2-1.2c15-0.1,14.8-4.9,14.8-4.9s-4-0.3-6.5-2.5c-2.4-2.1-3.8-5.9-3.8-5.9s0.9,0.5,2,0.7
	c1,0.2,2.3,0.1,2.3,0.1s-4.9-3-6.6-6.3c-1.4-2.9-1-5.9-1-5.9l4.4,1.7c0,0-7.1-8.1-3.2-15.3c6.1,5.5,10.3,11.2,23.5,11.5
	c0.1-13.7,11.3-18.6,18.6-10.3c1.5,1.7,8.7-2.5,8.7-2.5l-3.7,6.2l4.8-1.4L95.1,58C95.1,58,95.2,60.5,94.8,63.4z"/>
</svg>
