<?xml version="1.0" encoding="utf-8"?>
<!-- Generator: Adobe Illustrator 15.1.0, SVG Export Plug-In . SVG Version: 6.00 Build 0)  -->
<!DOCTYPE svg PUBLIC "-//W3C//DTD SVG 1.1//EN" "http://www.w3.org/Graphics/SVG/1.1/DTD/svg11.dtd">
<svg version="1.1" id="Layer_1" xmlns="http://www.w3.org/2000/svg" xmlns:xlink="http://www.w3.org/1999/xlink" x="0px" y="0px"
	 width="437px" height="490px" viewBox="0 0 437 490" enable-background="new 0 0 437 490" xml:space="preserve">
<g>
	<polygon fill-rule="evenodd" clip-rule="evenodd" fill="none" stroke="#2B85B7" stroke-miterlimit="10" points="69.986,373.043 
		38.032,373.043 38.056,388.711 70.012,388.711 	"/>
	<polygon fill-rule="evenodd" clip-rule="evenodd" fill="none" stroke="#2B85B7" stroke-miterlimit="10" points="25.825,373.043 
		7.188,373.043 7.188,388.711 25.851,388.711 	"/>
	<path fill-rule="evenodd" clip-rule="evenodd" fill="none" stroke="#2B85B7" stroke-miterlimit="10" d="M287.946,154.554
		c5.997,7.004,11.251,14.679,15.641,22.994l13.65-7.312c-5.231-9.45-11.472-18.328-18.593-26.51L287.946,154.554z"/>
	<path fill-rule="evenodd" clip-rule="evenodd" fill="none" stroke="#2B85B7" stroke-miterlimit="10" d="M318.777,242.473
		c-0.026,4.917-0.323,9.761-0.869,14.523l16.629,2.704c0.755-5.987,1.155-12.088,1.155-18.288c0-4.972-0.26-9.886-0.748-14.738
		l-16.6,3.346C318.649,234.088,318.8,238.238,318.777,242.473z"/>
	<path fill-rule="evenodd" clip-rule="evenodd" fill="none" stroke="#2B85B7" stroke-miterlimit="10" d="M244.62,121.202
		l7.928-14.09c-5.475-2.931-11.149-5.575-16.997-7.915c-1.229,5.481-2.981,10.761-5.198,15.799
		C235.247,116.841,240.008,118.912,244.62,121.202z"/>
	<path fill-rule="evenodd" clip-rule="evenodd" fill="none" stroke="#2B85B7" stroke-miterlimit="10" d="M322.835,181.412
		l-13.969,7.484c3.636,8.939,6.342,18.51,7.998,28.676l16.301-3.283C331.01,202.845,327.515,191.837,322.835,181.412z"/>
	<path fill-rule="evenodd" clip-rule="evenodd" fill="none" stroke="#2B85B7" stroke-miterlimit="10" d="M255.566,127.225
		c8.639,5.248,16.625,11.337,23.801,18.235l10.709-10.836c-8.071-7.919-17.035-15.033-26.743-21.207L255.566,127.225z"/>
	<path fill-rule="evenodd" clip-rule="evenodd" fill="none" stroke="#2B85B7" stroke-miterlimit="10" d="M300.759,307.823
		c-4.734,7.905-10.328,15.267-16.684,21.993l10.866,12.018c7.716-7.972,14.501-16.771,20.213-26.252L300.759,307.823z"/>
	<path fill-rule="evenodd" clip-rule="evenodd" fill="none" stroke="#2B85B7" stroke-miterlimit="10" d="M315.888,269.328
		c-2.053,9.609-5.172,18.801-9.254,27.467l14.506,7.82c5.02-10.254,8.838-21.173,11.303-32.597L315.888,269.328z"/>
	<path fill-rule="evenodd" clip-rule="evenodd" fill="none" stroke="#2B85B7" stroke-miterlimit="10" d="M200.525,371.678
		c-9.794,1.376-20.002,1.883-30.547,1.439l0.024,15.594h0.524c10.941,0.635,21.623,0.223,31.958-1.122L200.525,371.678z"/>
	<polygon fill-rule="evenodd" clip-rule="evenodd" fill="none" stroke="#2B85B7" stroke-miterlimit="10" points="157.023,373.043 
		125.951,373.043 125.976,388.711 156.973,388.711 	"/>
	<polygon fill-rule="evenodd" clip-rule="evenodd" fill="none" stroke="#2B85B7" stroke-miterlimit="10" points="114.03,373.043 
		82.015,373.043 81.962,388.711 114.056,388.711 	"/>
	<path fill-rule="evenodd" clip-rule="evenodd" fill="none" stroke="#2B85B7" stroke-miterlimit="10" d="M275.064,338.479
		c-7.337,6.404-15.46,12.062-24.272,16.852l7.125,14.486c10.11-5.459,19.481-11.968,27.964-19.379L275.064,338.479z"/>
	<path fill-rule="evenodd" clip-rule="evenodd" fill="none" stroke="#2B85B7" stroke-miterlimit="10" d="M246.697,375.311
		l-7.141-14.514c-8.413,3.649-17.344,6.561-26.719,8.65l1.976,16.062C225.966,383.185,236.637,379.744,246.697,375.311z"/>
</g>
<rect x="7.134" y="373.043" display="none" fill-rule="evenodd" clip-rule="evenodd" fill="#2AAFE5" width="18.771" height="15.668"/>
<g display="none">
	<polygon display="inline" fill-rule="evenodd" clip-rule="evenodd" fill="#2AAFE5" points="25.7,373.043 7.063,373.043 
		7.063,388.711 25.726,388.711 	"/>
	<polygon display="inline" fill-rule="evenodd" clip-rule="evenodd" fill="#2AAFE5" points="69.861,373.043 37.907,373.043 
		37.931,388.711 69.887,388.711 	"/>
</g>
<g display="none">
	<polygon display="inline" fill-rule="evenodd" clip-rule="evenodd" fill="#2AAFE5" points="25.825,373.043 7.188,373.043 
		7.188,388.711 25.851,388.711 	"/>
	<polygon display="inline" fill-rule="evenodd" clip-rule="evenodd" fill="#2AAFE5" points="69.986,373.043 38.032,373.043 
		38.056,388.711 70.012,388.711 	"/>
	<polygon display="inline" fill-rule="evenodd" clip-rule="evenodd" fill="#2AAFE5" points="114.03,373.043 82.015,373.043 
		81.962,388.711 114.056,388.711 	"/>
</g>
<g display="none">
	<polygon display="inline" fill-rule="evenodd" clip-rule="evenodd" fill="#2AAFE5" points="69.986,373.043 38.032,373.043 
		38.056,388.711 70.012,388.711 	"/>
	<polygon display="inline" fill-rule="evenodd" clip-rule="evenodd" fill="#2AAFE5" points="25.825,373.043 7.188,373.043 
		7.188,388.711 25.851,388.711 	"/>
	<polygon display="inline" fill-rule="evenodd" clip-rule="evenodd" fill="#2AAFE5" points="157.023,373.043 125.951,373.043 
		125.976,388.711 156.973,388.711 	"/>
	<polygon display="inline" fill-rule="evenodd" clip-rule="evenodd" fill="#2AAFE5" points="114.03,373.043 82.015,373.043 
		81.962,388.711 114.056,388.711 	"/>
</g>
<g display="none">
	<polygon display="inline" fill-rule="evenodd" clip-rule="evenodd" fill="#2AAFE5" points="69.986,373.063 38.032,373.063 
		38.056,388.731 70.012,388.731 	"/>
	<polygon display="inline" fill-rule="evenodd" clip-rule="evenodd" fill="#2AAFE5" points="114.03,373.063 82.015,373.063 
		81.962,388.731 114.056,388.731 	"/>
	<polygon display="inline" fill-rule="evenodd" clip-rule="evenodd" fill="#2AAFE5" points="25.825,373.063 7.188,373.063 
		7.188,388.731 25.851,388.731 	"/>
	<path display="inline" fill-rule="evenodd" clip-rule="evenodd" fill="#2AAFE5" d="M200.525,371.698
		c-9.794,1.376-20.002,1.883-30.547,1.439l0.024,15.594h0.524c10.941,0.635,21.623,0.223,31.958-1.122L200.525,371.698z"/>
	<path display="inline" fill-rule="evenodd" clip-rule="evenodd" fill="#2AAFE5" d="M246.697,375.331l-7.141-14.514
		c-8.413,3.649-17.344,6.561-26.719,8.65l1.976,16.062C225.966,383.206,236.637,379.765,246.697,375.331z"/>
	<polygon display="inline" fill-rule="evenodd" clip-rule="evenodd" fill="#2AAFE5" points="157.023,373.063 125.951,373.063 
		125.976,388.731 156.973,388.731 	"/>
</g>
<g display="none">
	<polygon display="inline" fill-rule="evenodd" clip-rule="evenodd" fill="#2AAFE5" points="69.986,373.053 38.032,373.053 
		38.056,388.721 70.012,388.721 	"/>
	<polygon display="inline" fill-rule="evenodd" clip-rule="evenodd" fill="#2AAFE5" points="114.03,373.053 82.015,373.053 
		81.962,388.721 114.056,388.721 	"/>
	<polygon display="inline" fill-rule="evenodd" clip-rule="evenodd" fill="#2AAFE5" points="25.825,373.053 7.188,373.053 
		7.188,388.721 25.851,388.721 	"/>
	<polygon display="inline" fill-rule="evenodd" clip-rule="evenodd" fill="#2AAFE5" points="157.023,373.053 125.951,373.053 
		125.976,388.721 156.973,388.721 	"/>
	<path display="inline" fill-rule="evenodd" clip-rule="evenodd" fill="#2AAFE5" d="M200.525,371.688
		c-9.794,1.376-20.002,1.883-30.547,1.439l0.024,15.594h0.524c10.941,0.635,21.623,0.223,31.958-1.122L200.525,371.688z"/>
	<path display="inline" fill-rule="evenodd" clip-rule="evenodd" fill="#2AAFE5" d="M300.759,307.833
		c-4.734,7.905-10.328,15.267-16.684,21.993l10.866,12.018c7.716-7.972,14.501-16.771,20.213-26.252L300.759,307.833z"/>
	<path display="inline" fill-rule="evenodd" clip-rule="evenodd" fill="#2AAFE5" d="M246.697,375.32l-7.141-14.514
		c-8.413,3.649-17.344,6.561-26.719,8.65l1.976,16.062C225.966,383.195,236.637,379.754,246.697,375.32z"/>
	<path display="inline" fill-rule="evenodd" clip-rule="evenodd" fill="#2AAFE5" d="M275.064,338.489
		c-7.337,6.404-15.46,12.062-24.272,16.852l7.125,14.486c10.11-5.459,19.481-11.968,27.964-19.379L275.064,338.489z"/>
</g>
<g display="none">
	<polygon display="inline" fill-rule="evenodd" clip-rule="evenodd" fill="#2AAFE5" points="25.752,373.043 7.114,373.043 
		7.114,388.711 25.778,388.711 	"/>
	<polygon display="inline" fill-rule="evenodd" clip-rule="evenodd" fill="#2AAFE5" points="69.913,373.043 37.959,373.043 
		37.983,388.711 69.938,388.711 	"/>
	<polygon display="inline" fill-rule="evenodd" clip-rule="evenodd" fill="#2AAFE5" points="156.95,373.043 125.878,373.043 
		125.902,388.711 156.899,388.711 	"/>
	<polygon display="inline" fill-rule="evenodd" clip-rule="evenodd" fill="#2AAFE5" points="113.957,373.043 81.941,373.043 
		81.889,388.711 113.982,388.711 	"/>
</g>
<g display="none">
	<polygon display="inline" fill-rule="evenodd" clip-rule="evenodd" fill="#2AAFE5" points="69.986,373 38.032,373 38.056,388.668 
		70.012,388.668 	"/>
	<polygon display="inline" fill-rule="evenodd" clip-rule="evenodd" fill="#2AAFE5" points="25.825,373 7.188,373 7.188,388.668 
		25.851,388.668 	"/>
	<polygon display="inline" fill-rule="evenodd" clip-rule="evenodd" fill="#2AAFE5" points="114.03,373 82.015,373 81.962,388.668 
		114.056,388.668 	"/>
	<path display="inline" fill-rule="evenodd" clip-rule="evenodd" fill="#2AAFE5" d="M200.525,371.635
		c-9.794,1.376-20.002,1.883-30.547,1.439l0.024,15.594h0.524c10.941,0.635,21.623,0.223,31.958-1.122L200.525,371.635z"/>
	<polygon display="inline" fill-rule="evenodd" clip-rule="evenodd" fill="#2AAFE5" points="157.023,373 125.951,373 
		125.976,388.668 156.973,388.668 	"/>
	<path display="inline" fill-rule="evenodd" clip-rule="evenodd" fill="#2AAFE5" d="M246.697,375.268l-7.141-14.514
		c-8.413,3.649-17.344,6.561-26.719,8.65l1.976,16.062C225.966,383.143,236.637,379.702,246.697,375.268z"/>
</g>
<g display="none">
	<polygon display="inline" fill-rule="evenodd" clip-rule="evenodd" fill="#2AAFE5" points="69.986,373.063 38.032,373.063 
		38.056,388.731 70.012,388.731 	"/>
	<polygon display="inline" fill-rule="evenodd" clip-rule="evenodd" fill="#2AAFE5" points="157.023,373.063 125.951,373.063 
		125.976,388.731 156.973,388.731 	"/>
	<polygon display="inline" fill-rule="evenodd" clip-rule="evenodd" fill="#2AAFE5" points="114.03,373.063 82.015,373.063 
		81.962,388.731 114.056,388.731 	"/>
	<polygon display="inline" fill-rule="evenodd" clip-rule="evenodd" fill="#2AAFE5" points="25.825,373.063 7.188,373.063 
		7.188,388.731 25.851,388.731 	"/>
	<path display="inline" fill-rule="evenodd" clip-rule="evenodd" fill="#2AAFE5" d="M318.777,242.494
		c-0.026,4.917-0.323,9.761-0.869,14.523l16.629,2.704c0.755-5.987,1.155-12.088,1.155-18.288c0-4.972-0.26-9.886-0.748-14.738
		l-16.6,3.346C318.649,234.109,318.8,238.258,318.777,242.494z"/>
	<path display="inline" fill-rule="evenodd" clip-rule="evenodd" fill="#2AAFE5" d="M300.759,307.843
		c-4.734,7.905-10.328,15.267-16.684,21.993l10.866,12.018c7.716-7.972,14.501-16.771,20.213-26.252L300.759,307.843z"/>
	<path display="inline" fill-rule="evenodd" clip-rule="evenodd" fill="#2AAFE5" d="M246.697,375.331l-7.141-14.514
		c-8.413,3.649-17.344,6.561-26.719,8.65l1.976,16.062C225.966,383.206,236.637,379.765,246.697,375.331z"/>
	<path display="inline" fill-rule="evenodd" clip-rule="evenodd" fill="#2AAFE5" d="M315.888,269.348
		c-2.053,9.609-5.172,18.801-9.254,27.467l14.506,7.82c5.02-10.254,8.838-21.173,11.303-32.597L315.888,269.348z"/>
	<path display="inline" fill-rule="evenodd" clip-rule="evenodd" fill="#2AAFE5" d="M200.525,371.698
		c-9.794,1.376-20.002,1.883-30.547,1.439l0.024,15.594h0.524c10.941,0.635,21.623,0.223,31.958-1.122L200.525,371.698z"/>
	<path display="inline" fill-rule="evenodd" clip-rule="evenodd" fill="#2AAFE5" d="M275.064,338.5
		c-7.337,6.404-15.46,12.062-24.272,16.852l7.125,14.486c10.11-5.459,19.481-11.968,27.964-19.379L275.064,338.5z"/>
</g>
<g>
	<polygon fill-rule="evenodd" clip-rule="evenodd" fill="#2AAFE5" points="157.023,373.096 125.951,373.096 125.976,388.764 
		156.973,388.764 	"/>
	<polygon fill-rule="evenodd" clip-rule="evenodd" fill="#2AAFE5" points="114.03,373.096 82.015,373.096 81.962,388.764 
		114.056,388.764 	"/>
	<polygon fill-rule="evenodd" clip-rule="evenodd" fill="#2AAFE5" points="25.825,373.096 7.188,373.096 7.188,388.764 
		25.851,388.764 	"/>
	<path fill-rule="evenodd" clip-rule="evenodd" fill="#2AAFE5" d="M316.864,217.625l16.301-3.283
		c-2.155-11.443-5.65-22.451-10.33-32.876l-13.969,7.484C312.502,197.888,315.208,207.458,316.864,217.625z"/>
	<path fill-rule="evenodd" clip-rule="evenodd" fill="#2AAFE5" d="M318.777,242.526c-0.026,4.917-0.323,9.761-0.869,14.523
		l16.629,2.704c0.755-5.987,1.155-12.088,1.155-18.288c0-4.972-0.26-9.886-0.748-14.738l-16.6,3.346
		C318.649,234.142,318.8,238.291,318.777,242.526z"/>
	<polygon fill-rule="evenodd" clip-rule="evenodd" fill="#2AAFE5" points="69.986,373.096 38.032,373.096 38.056,388.764 
		70.012,388.764 	"/>
	<path fill-rule="evenodd" clip-rule="evenodd" fill="#2AAFE5" d="M315.888,269.381c-2.053,9.609-5.172,18.801-9.254,27.467
		l14.506,7.82c5.02-10.254,8.838-21.173,11.303-32.597L315.888,269.381z"/>
	<path fill-rule="evenodd" clip-rule="evenodd" fill="#2AAFE5" d="M200.525,371.731c-9.794,1.376-20.002,1.883-30.547,1.439
		l0.024,15.594h0.524c10.941,0.635,21.623,0.223,31.958-1.122L200.525,371.731z"/>
	<path fill-rule="evenodd" clip-rule="evenodd" fill="#2AAFE5" d="M246.697,375.364l-7.141-14.514
		c-8.413,3.649-17.344,6.561-26.719,8.65l1.976,16.062C225.966,383.238,236.637,379.797,246.697,375.364z"/>
	<path fill-rule="evenodd" clip-rule="evenodd" fill="#2AAFE5" d="M275.064,338.532c-7.337,6.404-15.46,12.062-24.272,16.852
		l7.125,14.486c10.11-5.459,19.481-11.968,27.964-19.379L275.064,338.532z"/>
	<path fill-rule="evenodd" clip-rule="evenodd" fill="#2AAFE5" d="M300.759,307.876c-4.734,7.905-10.328,15.267-16.684,21.993
		l10.866,12.018c7.716-7.972,14.501-16.771,20.213-26.252L300.759,307.876z"/>
</g>
</svg>
